<?xml version="1.0" encoding="UTF-8" standalone="no"?>
<!DOCTYPE svg PUBLIC "-//W3C//DTD SVG 1.1//EN"
 "http://www.w3.org/Graphics/SVG/1.1/DTD/svg11.dtd">
<!-- Generated by graphviz version 2.40.1 (20161225.0304)
 -->
<!-- Title: %0 Pages: 1 -->
<svg width="373pt" height="826pt"
 viewBox="0.00 0.00 373.00 826.00" xmlns="http://www.w3.org/2000/svg" xmlns:xlink="http://www.w3.org/1999/xlink">
<g id="graph0" class="graph" transform="scale(1 1) rotate(0) translate(144 682)">
<title>%0</title>
<polygon fill="#ffffff" stroke="transparent" points="-144,144 -144,-682 229,-682 229,144 -144,144"/>
<!-- steps -->
<g id="node1" class="node">
<title>steps</title>
<polygon fill="#4477c9" stroke="transparent" points="4.5,0 4.5,-138 80.5,-138 80.5,0 4.5,0"/>
<polygon fill="#add8e6" stroke="transparent" points="4.5,-120 4.5,-138 80.5,-138 80.5,-120 4.5,-120"/>
<polygon fill="none" stroke="#000000" points="4.5,-120 4.5,-138 80.5,-138 80.5,-120 4.5,-120"/>
<text text-anchor="start" x="31.2518" y="-126.9" font-family="Times,serif" font-weight="bold" font-style="italic" font-size="9.00" fill="#000000"> steps </text>
<polygon fill="none" stroke="#000000" points="4.5,-100 4.5,-120 80.5,-120 80.5,-100 4.5,-100"/>
<text text-anchor="start" x="9.5" y="-106.9" font-family="Times,serif" font-size="9.00" fill="#000000">name: String</text>
<polygon fill="none" stroke="#000000" points="4.5,-80 4.5,-100 80.5,-100 80.5,-80 4.5,-80"/>
<text text-anchor="start" x="9.1289" y="-86.9" font-family="Times,serif" font-size="9.00" fill="#000000">description: String</text>
<polygon fill="none" stroke="#000000" points="4.5,-60 4.5,-80 80.5,-80 80.5,-60 4.5,-60"/>
<text text-anchor="start" x="9.5" y="-66.9" font-family="Times,serif" font-size="9.00" fill="#000000">resources: Array</text>
<polygon fill="none" stroke="#000000" points="4.5,-40 4.5,-60 80.5,-60 80.5,-40 4.5,-40"/>
<text text-anchor="start" x="9.5" y="-46.9" font-family="Times,serif" font-size="9.00" fill="#000000">extras: Array</text>
<polygon fill="none" stroke="#000000" points="4.5,-20 4.5,-40 80.5,-40 80.5,-20 4.5,-20"/>
<text text-anchor="start" x="9.5" y="-26.9" font-family="Times,serif" font-size="9.00" fill="#000000">_id: ObjectID</text>
<polygon fill="none" stroke="#000000" points="4.5,0 4.5,-20 80.5,-20 80.5,0 4.5,0"/>
<text text-anchor="start" x="9.5" y="-6.9" font-family="Times,serif" font-size="9.00" fill="#000000">__v: Number</text>
</g>
<!-- tracks -->
<g id="node2" class="node">
<title>tracks</title>
<polygon fill="#4477c9" stroke="transparent" points="7,-210 7,-288 78,-288 78,-210 7,-210"/>
<polygon fill="#add8e6" stroke="transparent" points="7.5,-270 7.5,-288 78.5,-288 78.5,-270 7.5,-270"/>
<polygon fill="none" stroke="#000000" points="7.5,-270 7.5,-288 78.5,-288 78.5,-270 7.5,-270"/>
<text text-anchor="start" x="30.0063" y="-276.9" font-family="Times,serif" font-weight="bold" font-style="italic" font-size="9.00" fill="#000000"> tracks </text>
<polygon fill="none" stroke="#000000" points="7.5,-250 7.5,-270 78.5,-270 78.5,-250 7.5,-250"/>
<text text-anchor="start" x="12.387" y="-256.9" font-family="Times,serif" font-size="9.00" fill="#000000">author: ObjectID</text>
<polygon fill="none" stroke="#000000" points="7.5,-230 7.5,-250 78.5,-250 78.5,-230 7.5,-230"/>
<text text-anchor="start" x="12.5" y="-236.9" font-family="Times,serif" font-size="9.00" fill="#000000">_id: ObjectID</text>
<polygon fill="none" stroke="#000000" points="7.5,-210 7.5,-230 78.5,-230 78.5,-210 7.5,-210"/>
<text text-anchor="start" x="12.5" y="-216.9" font-family="Times,serif" font-size="9.00" fill="#000000">__v: Number</text>
</g>
<!-- users -->
<g id="node3" class="node">
<title>users</title>
<polygon fill="#4477c9" stroke="transparent" points="0,-360 0,-538 85,-538 85,-360 0,-360"/>
<polygon fill="#add8e6" stroke="transparent" points=".5,-520 .5,-538 85.5,-538 85.5,-520 .5,-520"/>
<polygon fill="none" stroke="#000000" points=".5,-520 .5,-538 85.5,-538 85.5,-520 .5,-520"/>
<text text-anchor="start" x="31.5043" y="-526.9" font-family="Times,serif" font-weight="bold" font-style="italic" font-size="9.00" fill="#000000"> users </text>
<polygon fill="none" stroke="#000000" points=".5,-500 .5,-520 85.5,-520 85.5,-500 .5,-500"/>
<text text-anchor="start" x="5.5" y="-506.9" font-family="Times,serif" font-size="9.00" fill="#000000">email: String</text>
<polygon fill="none" stroke="#000000" points=".5,-480 .5,-500 85.5,-500 85.5,-480 .5,-480"/>
<text text-anchor="start" x="5.5" y="-486.9" font-family="Times,serif" font-size="9.00" fill="#000000">password: String</text>
<polygon fill="none" stroke="#000000" points=".5,-460 .5,-480 85.5,-480 85.5,-460 .5,-460"/>
<text text-anchor="start" x="5.5" y="-466.9" font-family="Times,serif" font-size="9.00" fill="#000000">name: String</text>
<polygon fill="none" stroke="#000000" points=".5,-440 .5,-460 85.5,-460 85.5,-440 .5,-440"/>
<text text-anchor="start" x="5.1482" y="-446.9" font-family="Times,serif" font-size="9.00" fill="#000000">currentTracks: Array</text>
<polygon fill="none" stroke="#000000" points=".5,-420 .5,-440 85.5,-440 85.5,-420 .5,-420"/>
<text text-anchor="start" x="5.5" y="-426.9" font-family="Times,serif" font-size="9.00" fill="#000000">_id: ObjectID</text>
<polygon fill="none" stroke="#000000" points=".5,-400 .5,-420 85.5,-420 85.5,-400 .5,-400"/>
<text text-anchor="start" x="5.5" y="-406.9" font-family="Times,serif" font-size="9.00" fill="#000000">updatedAt: Date</text>
<polygon fill="none" stroke="#000000" points=".5,-380 .5,-400 85.5,-400 85.5,-380 .5,-380"/>
<text text-anchor="start" x="5.5" y="-386.9" font-family="Times,serif" font-size="9.00" fill="#000000">createdAt: Date</text>
<polygon fill="none" stroke="#000000" points=".5,-360 .5,-380 85.5,-380 85.5,-360 .5,-360"/>
<text text-anchor="start" x="5.5" y="-366.9" font-family="Times,serif" font-size="9.00" fill="#000000">__v: Number</text>
</g>
</g>
</svg>
